<svg width="19" height="16" viewBox="0 0 19 16" fill="none" xmlns="http://www.w3.org/2000/svg">
<g clip-path="url(#clip0_66_179)">
<path d="M17.2551 5.03063L7.75512 13.0306C7.67237 13.1005 7.57405 13.156 7.4658 13.1939C7.35754 13.2317 7.24148 13.2512 7.12426 13.2512C7.00704 13.2512 6.89097 13.2317 6.78271 13.1939C6.67446 13.156 6.57614 13.1005 6.4934 13.0306L2.33715 9.53063C2.2543 9.46086 2.18858 9.37804 2.14375 9.28689C2.09891 9.19573 2.07584 9.09804 2.07584 8.99938C2.07584 8.90071 2.09891 8.80302 2.14375 8.71187C2.18858 8.62071 2.2543 8.53789 2.33715 8.46813C2.41999 8.39836 2.51834 8.34302 2.62659 8.30526C2.73483 8.26751 2.85084 8.24807 2.96801 8.24807C3.08517 8.24807 3.20118 8.26751 3.30942 8.30526C3.41767 8.34302 3.51602 8.39836 3.59887 8.46813L7.125 11.4375L15.9949 3.96938C16.1622 3.82848 16.3891 3.74932 16.6257 3.74932C16.8624 3.74932 17.0893 3.82848 17.2566 3.96938C17.4239 4.11027 17.5179 4.30137 17.5179 4.50063C17.5179 4.69988 17.4239 4.89098 17.2566 5.03188L17.2551 5.03063Z" fill="#20DBAE"/>
<path d="M17.2551 5.03063L7.75512 13.0306C7.67237 13.1005 7.57405 13.156 7.4658 13.1939C7.35754 13.2317 7.24148 13.2512 7.12426 13.2512C7.00704 13.2512 6.89097 13.2317 6.78271 13.1939C6.67446 13.156 6.57614 13.1005 6.4934 13.0306L2.33715 9.53063C2.2543 9.46086 2.18858 9.37804 2.14375 9.28689C2.09891 9.19573 2.07584 9.09804 2.07584 8.99938C2.07584 8.90071 2.09891 8.80302 2.14375 8.71187C2.18858 8.62071 2.2543 8.53789 2.33715 8.46813C2.41999 8.39836 2.51834 8.34302 2.62659 8.30526C2.73483 8.26751 2.85084 8.24807 2.96801 8.24807C3.08517 8.24807 3.20118 8.26751 3.30942 8.30526C3.41767 8.34302 3.51602 8.39836 3.59887 8.46813L7.125 11.4375L15.9949 3.96938C16.1622 3.82848 16.3891 3.74932 16.6257 3.74932C16.8624 3.74932 17.0893 3.82848 17.2566 3.96938C17.4239 4.11027 17.5179 4.30137 17.5179 4.50063C17.5179 4.69988 17.4239 4.89098 17.2566 5.03188L17.2551 5.03063Z" fill="#20DBAE"/>
</g>
<defs>
<clipPath id="clip0_66_179">
<rect width="19" height="16" fill="white"/>
</clipPath>
</defs>
</svg>
