<svg width="13" height="13" viewBox="0 0 13 13" fill="none" xmlns="http://www.w3.org/2000/svg">
<path d="M0.347594 0.347594C0.570251 0.125214 0.872072 0.000305772 1.18676 0.000305772C1.50145 0.000305772 1.80327 0.125214 2.02593 0.347594L6.33259 4.65268L10.6393 0.347594C10.7495 0.237393 10.8803 0.149977 11.0243 0.0903367C11.1683 0.0306964 11.3226 3.07213e-09 11.4784 0C11.6343 -3.07213e-09 11.7886 0.0306964 11.9326 0.0903367C12.0766 0.149977 12.2074 0.237393 12.3176 0.347594C12.4278 0.457795 12.5152 0.588623 12.5749 0.732607C12.6345 0.876591 12.6652 1.03091 12.6652 1.18676C12.6652 1.34261 12.6345 1.49693 12.5749 1.64091C12.5152 1.7849 12.4278 1.91573 12.3176 2.02593L8.01251 6.33259L12.3176 10.6393C12.5402 10.8618 12.6652 11.1637 12.6652 11.4784C12.6652 11.7932 12.5402 12.095 12.3176 12.3176C12.095 12.5402 11.7932 12.6652 11.4784 12.6652C11.1637 12.6652 10.8618 12.5402 10.6393 12.3176L6.33259 8.01251L2.02593 12.3176C1.80337 12.5402 1.50151 12.6652 1.18676 12.6652C0.872012 12.6652 0.570155 12.5402 0.347594 12.3176C0.125033 12.095 0 11.7932 0 11.4784C0 11.1637 0.125033 10.8618 0.347594 10.6393L4.65268 6.33259L0.347594 2.02593C0.125214 1.80327 0.000305772 1.50145 0.000305772 1.18676C0.000305772 0.872072 0.125214 0.570251 0.347594 0.347594Z" fill="#EC6767"/>
</svg>
